<svg xmlns="http://www.w3.org/2000/svg" viewBox="0 0 400 400" shape-rendering="crispEdges">
  <defs>
    <filter id="glow">
      <feGaussianBlur stdDeviation="2" result="coloredBlur"/>
      <feMerge><feMergeNode in="coloredBlur"/><feMergeNode in="SourceGraphic"/></feMerge>
    </filter>
  </defs>
  
  <!-- Background - warmer for session/event feel -->
  <rect width="400" height="400" fill="#1a1a2e"/>
  <rect x="8" y="8" width="384" height="384" fill="#1e1e3f"/>
  <rect x="16" y="16" width="368" height="368" fill="#12122a"/>
  
  <!-- Border - purple/magenta for event vibe -->
  <rect x="8" y="8" width="384" height="8" fill="#9b59b6"/>
  <rect x="8" y="384" width="384" height="8" fill="#9b59b6"/>
  <rect x="8" y="8" width="8" height="384" fill="#9b59b6"/>
  <rect x="384" y="8" width="8" height="384" fill="#9b59b6"/>
  
  <!-- Corner accents -->
  <rect x="8" y="8" width="16" height="16" fill="#e056fd"/>
  <rect x="376" y="8" width="16" height="16" fill="#e056fd"/>
  <rect x="8" y="376" width="16" height="16" fill="#e056fd"/>
  <rect x="376" y="376" width="16" height="16" fill="#e056fd"/>
  
  <!-- Title banner -->
  <rect x="40" y="32" width="320" height="40" fill="#9b59b6"/>
  <text x="200" y="60" fill="#fff" font-family="monospace" font-size="18" text-anchor="middle" font-weight="bold">SESSION ATTENDANCE</text>
  
  <!-- Ticket stub design (pixel art) -->
  <rect x="60" y="100" width="280" height="180" fill="#2d2d5a"/>
  <rect x="68" y="108" width="264" height="164" fill="#1a1a3a"/>
  
  <!-- Perforated edge (left side) -->
  <g fill="#12122a">
    <rect x="60" y="116" width="8" height="8"/>
    <rect x="60" y="140" width="8" height="8"/>
    <rect x="60" y="164" width="8" height="8"/>
    <rect x="60" y="188" width="8" height="8"/>
    <rect x="60" y="212" width="8" height="8"/>
    <rect x="60" y="236" width="8" height="8"/>
    <rect x="60" y="260" width="8" height="8"/>
  </g>
  
  <!-- Session icon - headphones/DJ (pixel art) -->
  <g fill="#e056fd">
    <rect x="176" y="124" width="48" height="8"/>
    <rect x="168" y="132" width="8" height="24"/>
    <rect x="224" y="132" width="8" height="24"/>
    <rect x="160" y="148" width="16" height="24"/>
    <rect x="224" y="148" width="16" height="24"/>
    <rect x="184" y="156" width="32" height="8"/>
  </g>
  
  <!-- Session name -->
  <text x="200" y="200" fill="#fff" font-family="monospace" font-size="14" text-anchor="middle" font-weight="bold">MIDNIGHT VIBES</text>
  
  <!-- Date/Time display -->
  <rect x="100" y="212" width="200" height="32" fill="#0a0a1a"/>
  <rect x="104" y="216" width="192" height="24" fill="#001a1a"/>
  <text x="200" y="234" fill="#00ffff" font-family="monospace" font-size="12" text-anchor="middle" filter="url(#glow)">2024-12-18 • 23:00</text>
  
  <!-- Duration badge -->
  <rect x="140" y="252" width="120" height="20" fill="#9b59b6"/>
  <text x="200" y="266" fill="#fff" font-family="monospace" font-size="10" text-anchor="middle">DURATION: 2H 30M</text>
  
  <!-- Attendee count -->
  <rect x="40" y="300" width="320" height="40" fill="#1b263b"/>
  <g fill="#e056fd">
    <!-- People icons -->
    <rect x="60" y="312" width="8" height="8"/>
    <rect x="56" y="320" width="16" height="12"/>
    <rect x="84" y="312" width="8" height="8"/>
    <rect x="80" y="320" width="16" height="12"/>
    <rect x="108" y="312" width="8" height="8"/>
    <rect x="104" y="320" width="16" height="12"/>
  </g>
  <text x="240" y="326" fill="#00d4ff" font-family="monospace" font-size="14" text-anchor="middle">247 ATTENDED</text>
  
  <!-- Token ID -->
  <rect x="304" y="88" width="56" height="24" fill="#9b59b6"/>
  <text x="332" y="106" fill="#fff" font-family="monospace" font-size="11" text-anchor="middle" font-weight="bold">#0042</text>
  
  <!-- Station frequency -->
  <rect x="40" y="350" width="320" height="32" fill="#2d2d5a"/>
  <text x="200" y="372" fill="#e056fd" font-family="monospace" font-size="14" text-anchor="middle">📻 98.5 FM • CHILL ZONE</text>
  
  <!-- WEB3 RADIO branding -->
  <text x="200" y="395" fill="#666" font-family="monospace" font-size="8" text-anchor="middle" letter-spacing="2">WEB3 RADIO SESSION NFT</text>
</svg>