<svg xmlns="http://www.w3.org/2000/svg" viewBox="0 0 400 400" shape-rendering="crispEdges">
  <defs>
    <filter id="glow">
      <feGaussianBlur stdDeviation="2" result="coloredBlur"/>
      <feMerge><feMergeNode in="coloredBlur"/><feMergeNode in="SourceGraphic"/></feMerge>
    </filter>
  </defs>
  
  <!-- Background -->
  <rect width="400" height="400" fill="#1a1a2e"/>
  <rect x="8" y="8" width="384" height="384" fill="#16213e"/>
  <rect x="16" y="16" width="368" height="368" fill="#0f0f23"/>
  
  <!-- Border -->
  <rect x="8" y="8" width="384" height="8" fill="#e94560"/>
  <rect x="8" y="384" width="384" height="8" fill="#e94560"/>
  <rect x="8" y="8" width="8" height="384" fill="#e94560"/>
  <rect x="384" y="8" width="8" height="384" fill="#e94560"/>
  
  <!-- Corner accents -->
  <rect x="8" y="8" width="16" height="16" fill="#ff6b6b"/>
  <rect x="376" y="8" width="16" height="16" fill="#ff6b6b"/>
  <rect x="8" y="376" width="16" height="16" fill="#ff6b6b"/>
  <rect x="376" y="376" width="16" height="16" fill="#ff6b6b"/>
  
  <!-- Title banner -->
  <rect x="40" y="32" width="320" height="40" fill="#e94560"/>
  <text x="200" y="60" fill="#fff" font-family="monospace" font-size="20" text-anchor="middle" font-weight="bold">FREQUENCY LICENSE</text>
  
  <!-- Radio tower icon (pixel art) -->
  <g fill="#ffd700">
    <!-- Tower base -->
    <rect x="188" y="180" width="24" height="80"/>
    <rect x="180" y="252" width="40" height="8"/>
    <!-- Tower top -->
    <rect x="196" y="140" width="8" height="44"/>
    <!-- Signal waves -->
    <rect x="160" y="148" width="8" height="8" opacity="0.9"/>
    <rect x="144" y="140" width="8" height="8" opacity="0.7"/>
    <rect x="128" y="132" width="8" height="8" opacity="0.5"/>
    <rect x="232" y="148" width="8" height="8" opacity="0.9"/>
    <rect x="248" y="140" width="8" height="8" opacity="0.7"/>
    <rect x="264" y="132" width="8" height="8" opacity="0.5"/>
    <!-- Antenna light -->
    <rect x="196" y="132" width="8" height="8" fill="#ff3333"/>
  </g>
  
  <!-- Frequency display box -->
  <rect x="100" y="280" width="200" height="56" fill="#0a0a1a"/>
  <rect x="104" y="284" width="192" height="48" fill="#001a00"/>
  
  <!-- Frequency number (88.1) -->
  <g fill="#00ff41" filter="url(#glow)">
    <rect x="120" y="296" width="20" height="4"/><rect x="120" y="308" width="20" height="4"/><rect x="120" y="320" width="20" height="4"/>
    <rect x="120" y="296" width="4" height="28"/><rect x="136" y="296" width="4" height="28"/>
    <rect x="152" y="296" width="20" height="4"/><rect x="152" y="308" width="20" height="4"/><rect x="152" y="320" width="20" height="4"/>
    <rect x="152" y="296" width="4" height="28"/><rect x="168" y="296" width="4" height="28"/>
    <rect x="184" y="320" width="4" height="4"/>
    <rect x="200" y="296" width="4" height="28"/>
  </g>
  
  <!-- FM badge -->
  <rect x="232" y="296" width="48" height="24" fill="#e94560"/>
  <text x="256" y="314" fill="#fff" font-family="monospace" font-size="14" text-anchor="middle" font-weight="bold">FM</text>
  
  <!-- Owner label -->
  <rect x="40" y="350" width="320" height="32" fill="#1b263b"/>
  <text x="200" y="372" fill="#00d4ff" font-family="monospace" font-size="12" text-anchor="middle">OWNER: 0x1234...5678</text>
  
  <!-- Token ID -->
  <rect x="304" y="88" width="56" height="24" fill="#e94560"/>
  <text x="332" y="106" fill="#fff" font-family="monospace" font-size="11" text-anchor="middle" font-weight="bold">#0001</text>
  
  <!-- WEB3 RADIO branding -->
  <text x="200" y="112" fill="#888" font-family="monospace" font-size="10" text-anchor="middle" letter-spacing="2">WEB3 RADIO</text>
</svg>