<svg xmlns="http://www.w3.org/2000/svg" viewBox="0 0 400 400" shape-rendering="crispEdges">
  <defs>
    <filter id="glow">
      <feGaussianBlur stdDeviation="3" result="coloredBlur"/>
      <feMerge><feMergeNode in="coloredBlur"/><feMergeNode in="SourceGraphic"/></feMerge>
    </filter>
    <filter id="psychGlow">
      <feGaussianBlur stdDeviation="5" result="coloredBlur"/>
      <feMerge><feMergeNode in="coloredBlur"/><feMergeNode in="SourceGraphic"/></feMerge>
    </filter>
  </defs>
  
  <!-- Background - deep purple/green gradient feel -->
  <rect width="400" height="400" fill="#0a0f0a"/>
  <rect x="8" y="8" width="384" height="384" fill="#0f1a0f"/>
  <rect x="16" y="16" width="368" height="368" fill="#0a0f0a"/>
  
  <!-- Psychedelic border pattern -->
  <rect x="8" y="8" width="384" height="8" fill="#00ff88"/>
  <rect x="8" y="384" width="384" height="8" fill="#ff00ff"/>
  <rect x="8" y="8" width="8" height="192" fill="#00ff88"/>
  <rect x="8" y="200" width="8" height="192" fill="#ff00ff"/>
  <rect x="384" y="8" width="8" height="192" fill="#ff00ff"/>
  <rect x="384" y="200" width="8" height="192" fill="#00ff88"/>
  
  <!-- Corner accents - alternating -->
  <rect x="8" y="8" width="16" height="16" fill="#ffff00"/>
  <rect x="376" y="8" width="16" height="16" fill="#00ffff"/>
  <rect x="8" y="376" width="16" height="16" fill="#00ffff"/>
  <rect x="376" y="376" width="16" height="16" fill="#ffff00"/>
  
  <!-- 420 Zone title -->
  <rect x="80" y="32" width="240" height="48" fill="#1a0f1a"/>
  <text x="200" y="65" fill="#00ff88" font-family="monospace" font-size="28" text-anchor="middle" font-weight="bold" filter="url(#psychGlow)">420 ZONE</text>
  
  <!-- Leaf icon (pixel art) -->
  <g fill="#00ff88" filter="url(#glow)">
    <!-- Center stem -->
    <rect x="196" y="140" width="8" height="80"/>
    <!-- Main leaf shape -->
    <rect x="180" y="120" width="40" height="8"/>
    <rect x="172" y="128" width="56" height="8"/>
    <rect x="164" y="136" width="72" height="8"/>
    <rect x="156" y="144" width="88" height="8"/>
    <rect x="164" y="152" width="72" height="8"/>
    <rect x="172" y="160" width="56" height="8"/>
    <rect x="180" y="168" width="40" height="8"/>
    <!-- Side leaves -->
    <rect x="140" y="156" width="24" height="8"/>
    <rect x="132" y="164" width="24" height="8"/>
    <rect x="236" y="156" width="24" height="8"/>
    <rect x="244" y="164" width="24" height="8"/>
  </g>
  
  <!-- Frequency display -->
  <rect x="120" y="230" width="160" height="48" fill="#0a0a0a"/>
  <rect x="124" y="234" width="152" height="40" fill="#001a00"/>
  
  <!-- 420.0 display -->
  <g fill="#00ff88" filter="url(#psychGlow)">
    <text x="200" y="264" font-family="monospace" font-size="32" text-anchor="middle" font-weight="bold">420.0</text>
  </g>
  
  <!-- FM badge -->
  <rect x="176" y="284" width="48" height="20" fill="#ff00ff"/>
  <text x="200" y="298" fill="#fff" font-family="monospace" font-size="12" text-anchor="middle" font-weight="bold">FM</text>
  
  <!-- Vibes indicator -->
  <rect x="60" y="320" width="280" height="32" fill="#1a0f1a"/>
  <text x="200" y="342" fill="#ffff00" font-family="monospace" font-size="14" text-anchor="middle" filter="url(#glow)">✨ EARNING VIBES ✨</text>
  
  <!-- Mood ring display -->
  <g>
    <rect x="140" y="360" width="120" height="24" fill="#0a0a0a"/>
    <rect x="148" y="364" width="24" height="16" fill="#ff6b6b"/>
    <rect x="172" y="364" width="24" height="16" fill="#ffd93d"/>
    <rect x="196" y="364" width="24" height="16" fill="#6bcb77"/>
    <rect x="220" y="364" width="16" height="16" fill="#4d96ff"/>
  </g>
  <text x="200" y="395" fill="#888" font-family="monospace" font-size="8" text-anchor="middle">COMMUNITY MOOD</text>
  
  <!-- Floating particles (static representation) -->
  <g fill="#00ff88" opacity="0.5">
    <rect x="60" y="100" width="4" height="4"/>
    <rect x="320" y="140" width="4" height="4"/>
    <rect x="80" y="200" width="4" height="4"/>
    <rect x="300" y="260" width="4" height="4"/>
    <rect x="100" y="300" width="4" height="4"/>
    <rect x="280" y="100" width="4" height="4"/>
  </g>
  <g fill="#ff00ff" opacity="0.5">
    <rect x="340" y="180" width="4" height="4"/>
    <rect x="50" y="240" width="4" height="4"/>
    <rect x="330" y="320" width="4" height="4"/>
    <rect x="70" y="160" width="4" height="4"/>
  </g>
  
  <!-- Time indicator -->
  <rect x="304" y="32" width="56" height="24" fill="#ff00ff"/>
  <text x="332" y="50" fill="#fff" font-family="monospace" font-size="11" text-anchor="middle" font-weight="bold">4:20</text>
</svg>